<?xml version="1.0" standalone="no"?>
<!DOCTYPE svg PUBLIC "-//W3C//DTD SVG 20010904//EN"
 "http://www.w3.org/TR/2001/REC-SVG-20010904/DTD/svg10.dtd">
<svg version="1.0" xmlns="http://www.w3.org/2000/svg"
 width="160.000000pt" height="160.000000pt" viewBox="0 0 160.000000 160.000000"
 preserveAspectRatio="xMidYMid meet">
<metadata>
Created by potrace 1.14, written by Peter Selinger 2001-2017
</metadata>
<g transform="translate(0.000000,160.000000) scale(0.100000,-0.100000)"
fill="#000000" stroke="none">
<path d="M490 1449 c-123 -49 -164 -286 -70 -406 34 -44 93 -81 139 -88 41 -6
45 -4 85 38 115 119 82 371 -56 443 -40 21 -68 24 -98 13z"/>
<path d="M899 1420 c-59 -48 -78 -95 -75 -180 3 -87 33 -157 94 -220 91 -92
161 -62 213 91 40 121 8 236 -86 301 -58 40 -104 43 -146 8z"/>
<path d="M1258 1141 c-35 -28 -59 -73 -60 -109 -2 -52 32 -142 63 -169 34 -31
94 -54 118 -46 71 23 150 88 151 125 0 9 -14 43 -31 75 -74 136 -169 185 -241
124z"/>
<path d="M139 1008 c-56 -52 -82 -120 -54 -140 6 -5 5 -8 -2 -8 -7 0 -13 -7
-13 -16 0 -9 5 -12 13 -8 9 6 9 4 0 -7 -21 -21 -15 -58 17 -113 53 -91 110
-143 168 -152 25 -4 38 3 80 43 56 54 77 108 68 176 -8 56 -57 158 -92 191
-61 58 -143 73 -185 34z"/>
<path d="M683 910 c-98 -50 -168 -158 -184 -280 -5 -39 -18 -101 -30 -138 -61
-193 -57 -257 22 -334 31 -31 60 -49 83 -54 20 -3 39 -11 42 -16 3 -5 13 -1
21 9 8 10 12 12 8 6 -3 -7 -2 -13 4 -13 26 0 132 47 192 86 118 76 135 81 274
89 171 11 229 34 285 116 54 80 50 182 -11 249 -38 41 -371 248 -439 273 -31
11 -92 21 -140 24 -73 4 -91 1 -127 -17z"/>
</g>
</svg>
